<?xml version="1.0" encoding="UTF-8"?><svg id="Capa_1" xmlns="http://www.w3.org/2000/svg" viewBox="0 0 311.74 61.71"><defs><style>.cls-1{fill:#003770;}.cls-2{fill:#fff;}.cls-3{fill:#dd0917;}.cls-4{fill:#2270b4;}.cls-5{fill:#1c3b6a;}.cls-6{fill:#9a9999;}.cls-7{fill:none;stroke:#2470b4;stroke-miterlimit:10;stroke-width:.44px;}</style></defs><g><path class="cls-1" d="M122.39,4.91v1.95h3.82v2.53h-3.82v2.16h4.33v2.66h-7.65V2.25h7.65v2.66h-4.33Z"/><path class="cls-1" d="M131.69,1.65V14.21h-3.33V1.65h3.33Z"/><path class="cls-1" d="M142.64,10.12h-6.3c.03,.52,.18,.91,.43,1.16,.25,.25,.58,.38,.98,.38,.55,0,.95-.25,1.19-.75h3.55c-.15,.66-.43,1.24-.86,1.76-.42,.51-.96,.92-1.6,1.21-.65,.29-1.36,.44-2.14,.44-.94,0-1.77-.2-2.5-.59-.73-.4-1.3-.96-1.71-1.7-.41-.73-.62-1.6-.62-2.6s.2-1.86,.61-2.59,.98-1.29,1.71-1.69c.73-.4,1.57-.59,2.52-.59s1.77,.19,2.5,.58c.72,.38,1.29,.94,1.7,1.66,.41,.72,.61,1.56,.61,2.54,0,.26-.02,.52-.05,.78Zm-3.34-1.61c0-.41-.14-.73-.41-.96-.27-.23-.61-.35-1.02-.35s-.74,.11-1,.33c-.26,.22-.43,.55-.51,.98h2.94Z"/><path class="cls-1" d="M144.11,6.86c.41-.73,.98-1.3,1.71-1.7,.73-.4,1.56-.59,2.5-.59,1.21,0,2.23,.33,3.05,.99s1.36,1.59,1.6,2.77h-3.53c-.2-.62-.6-.93-1.19-.93-.42,0-.75,.17-.99,.52-.24,.34-.36,.85-.36,1.52s.12,1.18,.36,1.53,.57,.53,.99,.53c.6,0,1-.31,1.19-.93h3.53c-.24,1.18-.77,2.1-1.6,2.77-.83,.67-1.84,1-3.05,1-.94,0-1.77-.2-2.5-.59-.73-.4-1.3-.96-1.71-1.7-.41-.73-.61-1.6-.61-2.6s.2-1.84,.61-2.58Z"/><path class="cls-1" d="M154.41,6.86c.41-.73,.98-1.3,1.71-1.7,.73-.4,1.56-.59,2.5-.59,1.21,0,2.23,.33,3.05,.99,.83,.66,1.36,1.59,1.6,2.77h-3.53c-.2-.62-.6-.93-1.19-.93-.42,0-.75,.17-.99,.52-.24,.34-.37,.85-.37,1.52s.12,1.18,.37,1.53,.57,.53,.99,.53c.6,0,1-.31,1.19-.93h3.53c-.24,1.18-.77,2.1-1.6,2.77-.83,.67-1.84,1-3.05,1-.94,0-1.77-.2-2.5-.59-.73-.4-1.3-.96-1.71-1.7-.41-.73-.61-1.6-.61-2.6s.2-1.84,.61-2.58Z"/><path class="cls-1" d="M164.91,3.32c-.36-.32-.53-.73-.53-1.21s.18-.91,.53-1.24c.36-.33,.83-.49,1.42-.49s1.04,.17,1.4,.49c.36,.33,.53,.74,.53,1.24s-.18,.89-.53,1.21c-.36,.32-.82,.48-1.4,.48s-1.06-.16-1.42-.48Zm3.06,1.37V14.21h-3.33V4.69h3.33Z"/><path class="cls-1" d="M171.75,13.73c-.75-.4-1.34-.96-1.77-1.7-.43-.73-.64-1.6-.64-2.6s.22-1.84,.65-2.58c.44-.73,1.03-1.3,1.78-1.7,.75-.4,1.6-.59,2.55-.59s1.8,.2,2.55,.59c.75,.4,1.35,.96,1.78,1.7,.44,.74,.65,1.6,.65,2.58s-.22,1.85-.65,2.59-1.03,1.31-1.79,1.71c-.76,.4-1.61,.59-2.56,.59s-1.8-.2-2.55-.59Zm3.72-2.81c.31-.34,.47-.84,.47-1.48s-.16-1.14-.47-1.48c-.31-.34-.69-.51-1.15-.51s-.83,.17-1.14,.51c-.31,.34-.46,.83-.46,1.48s.15,1.15,.44,1.49,.67,.51,1.14,.51,.85-.17,1.16-.52Z"/><path class="cls-1" d="M189.51,5.7c.64,.73,.97,1.72,.97,2.96v5.55h-3.33v-5.11c0-.54-.14-.97-.42-1.28-.28-.31-.66-.47-1.14-.47s-.89,.16-1.17,.47c-.28,.31-.42,.74-.42,1.28v5.11h-3.33V4.69h3.33v1.36c.29-.43,.69-.78,1.19-1.04,.5-.27,1.07-.4,1.71-.4,1.1,0,1.97,.37,2.61,1.09Z"/><path class="cls-1" d="M201.35,10.12h-6.3c.03,.52,.18,.91,.43,1.16s.58,.38,.98,.38c.55,0,.95-.25,1.19-.75h3.55c-.15,.66-.43,1.24-.86,1.76-.42,.51-.96,.92-1.6,1.21-.64,.29-1.36,.44-2.14,.44-.94,0-1.77-.2-2.5-.59-.73-.4-1.3-.96-1.71-1.7-.41-.73-.62-1.6-.62-2.6s.2-1.86,.61-2.59,.98-1.29,1.71-1.69c.73-.4,1.57-.59,2.52-.59s1.77,.19,2.49,.58c.72,.38,1.29,.94,1.7,1.66,.41,.72,.61,1.56,.61,2.54,0,.26-.02,.52-.05,.78Zm-3.34-1.61c0-.41-.14-.73-.41-.96-.27-.23-.61-.35-1.02-.35s-.74,.11-1,.33c-.26,.22-.43,.55-.51,.98h2.94Z"/><path class="cls-1" d="M204.52,13.9c-.67-.29-1.21-.68-1.6-1.19-.39-.5-.61-1.07-.65-1.71h3.22c.04,.31,.19,.54,.42,.71,.24,.17,.53,.25,.88,.25,.27,0,.49-.06,.64-.17,.16-.11,.24-.26,.24-.44,0-.24-.13-.41-.39-.53-.26-.11-.69-.24-1.29-.37-.68-.14-1.24-.29-1.7-.46-.45-.17-.85-.45-1.18-.83-.33-.38-.5-.91-.5-1.56,0-.57,.15-1.08,.46-1.54,.31-.46,.76-.82,1.35-1.09s1.31-.41,2.15-.41c1.24,0,2.22,.3,2.94,.92s1.13,1.41,1.24,2.41h-3c-.06-.3-.19-.54-.4-.7-.21-.16-.49-.25-.84-.25-.27,0-.48,.05-.62,.15-.14,.1-.21,.24-.21,.42,0,.23,.13,.4,.39,.52,.26,.12,.68,.24,1.26,.37,.69,.15,1.26,.31,1.72,.49,.46,.18,.86,.47,1.21,.87s.52,.95,.52,1.64c0,.55-.16,1.05-.48,1.49s-.78,.79-1.38,1.04c-.59,.25-1.29,.38-2.1,.38-.86,0-1.63-.14-2.3-.43Z"/><path class="cls-1" d="M221.7,14.21l-2.38-4.41h-.36v4.41h-3.33V2.25h5.24c.96,0,1.78,.17,2.44,.5,.67,.33,1.17,.79,1.51,1.37,.34,.58,.51,1.24,.51,1.96,0,.81-.22,1.53-.67,2.15-.45,.62-1.1,1.06-1.96,1.32l2.7,4.67h-3.72Zm-2.73-6.69h1.65c.45,0,.79-.11,1.02-.32s.34-.53,.34-.93c0-.38-.12-.69-.35-.91-.23-.22-.57-.33-1.01-.33h-1.65v2.49Z"/><path class="cls-1" d="M235.9,10.12h-6.3c.03,.52,.18,.91,.43,1.16s.58,.38,.98,.38c.55,0,.95-.25,1.19-.75h3.55c-.15,.66-.43,1.24-.86,1.76-.42,.51-.96,.92-1.6,1.21-.64,.29-1.36,.44-2.14,.44-.94,0-1.77-.2-2.5-.59-.73-.4-1.3-.96-1.71-1.7-.41-.73-.62-1.6-.62-2.6s.2-1.86,.61-2.59,.98-1.29,1.71-1.69c.73-.4,1.57-.59,2.52-.59s1.77,.19,2.49,.58c.72,.38,1.29,.94,1.7,1.66,.41,.72,.61,1.56,.61,2.54,0,.26-.02,.52-.05,.78Zm-3.34-1.61c0-.41-.14-.73-.41-.96-.27-.23-.61-.35-1.02-.35s-.74,.11-1,.33c-.26,.22-.43,.55-.51,.98h2.94Z"/><path class="cls-1" d="M242.51,4.96c.48,.26,.85,.61,1.11,1.05v-1.32h3.33V14.11c0,.89-.17,1.7-.51,2.42-.34,.72-.87,1.29-1.59,1.72-.72,.43-1.63,.65-2.72,.65-1.47,0-2.65-.35-3.53-1.04-.88-.69-1.39-1.63-1.51-2.82h3.28c.07,.31,.24,.54,.51,.71s.62,.25,1.05,.25c1.13,0,1.7-.63,1.7-1.9v-1.22c-.26,.44-.63,.79-1.11,1.05-.48,.26-1.04,.39-1.69,.39-.76,0-1.45-.2-2.06-.59-.62-.4-1.1-.96-1.46-1.71-.36-.74-.53-1.6-.53-2.59s.18-1.84,.53-2.58c.36-.73,.84-1.3,1.46-1.7,.62-.4,1.3-.59,2.06-.59,.64,0,1.21,.13,1.69,.39Zm.61,3.04c-.33-.35-.74-.53-1.23-.53s-.91,.17-1.24,.52c-.33,.35-.49,.83-.49,1.45s.16,1.09,.49,1.45c.33,.36,.74,.53,1.24,.53s.9-.18,1.23-.53c.33-.35,.5-.84,.5-1.46s-.17-1.09-.5-1.44Z"/><path class="cls-1" d="M249.11,3.32c-.36-.32-.53-.73-.53-1.21s.18-.91,.53-1.24c.36-.33,.83-.49,1.42-.49s1.04,.17,1.4,.49c.36,.33,.53,.74,.53,1.24s-.18,.89-.53,1.21c-.36,.32-.82,.48-1.4,.48s-1.06-.16-1.42-.48Zm3.06,1.37V14.21h-3.33V4.69h3.33Z"/><path class="cls-1" d="M255.95,13.73c-.75-.4-1.34-.96-1.77-1.7-.43-.73-.64-1.6-.64-2.6s.22-1.84,.65-2.58c.44-.73,1.03-1.3,1.78-1.7,.75-.4,1.6-.59,2.55-.59s1.8,.2,2.55,.59c.75,.4,1.35,.96,1.78,1.7,.44,.74,.65,1.6,.65,2.58s-.22,1.85-.65,2.59-1.03,1.31-1.79,1.71c-.76,.4-1.61,.59-2.56,.59s-1.8-.2-2.55-.59Zm3.72-2.81c.31-.34,.47-.84,.47-1.48s-.16-1.14-.47-1.48c-.31-.34-.69-.51-1.15-.51s-.83,.17-1.14,.51c-.31,.34-.46,.83-.46,1.48s.15,1.15,.44,1.49,.67,.51,1.14,.51,.85-.17,1.16-.52Z"/><path class="cls-1" d="M273.71,5.7c.64,.73,.97,1.72,.97,2.96v5.55h-3.33v-5.11c0-.54-.14-.97-.42-1.28-.28-.31-.66-.47-1.14-.47s-.89,.16-1.17,.47c-.28,.31-.42,.74-.42,1.28v5.11h-3.33V4.69h3.33v1.36c.29-.43,.69-.78,1.19-1.04,.5-.27,1.07-.4,1.71-.4,1.1,0,1.97,.37,2.61,1.09Z"/><path class="cls-1" d="M276.5,6.86c.36-.73,.84-1.3,1.46-1.7,.62-.4,1.3-.59,2.06-.59,.66,0,1.22,.13,1.7,.39,.47,.26,.84,.61,1.1,1.05v-1.32h3.33V14.21h-3.33v-1.32c-.26,.44-.63,.79-1.11,1.05-.48,.26-1.04,.39-1.69,.39-.76,0-1.45-.2-2.06-.59-.62-.4-1.1-.96-1.46-1.71-.36-.74-.53-1.6-.53-2.59s.18-1.84,.53-2.58Zm5.82,1.14c-.33-.35-.74-.53-1.23-.53s-.91,.17-1.24,.52c-.33,.35-.49,.83-.49,1.45s.16,1.09,.49,1.45c.33,.36,.74,.53,1.24,.53s.9-.18,1.23-.53c.33-.35,.5-.84,.5-1.46s-.17-1.09-.5-1.44Z"/><path class="cls-1" d="M291.37,1.65V14.21h-3.33V1.65h3.33Z"/><path class="cls-1" d="M302.32,10.12h-6.3c.03,.52,.18,.91,.43,1.16s.58,.38,.98,.38c.55,0,.95-.25,1.19-.75h3.55c-.15,.66-.43,1.24-.86,1.76-.42,.51-.96,.92-1.6,1.21-.64,.29-1.36,.44-2.14,.44-.94,0-1.77-.2-2.5-.59-.73-.4-1.3-.96-1.71-1.7-.41-.73-.62-1.6-.62-2.6s.2-1.86,.61-2.59,.98-1.29,1.71-1.69c.73-.4,1.57-.59,2.52-.59s1.77,.19,2.49,.58c.72,.38,1.29,.94,1.7,1.66,.41,.72,.61,1.56,.61,2.54,0,.26-.02,.52-.05,.78Zm-3.34-1.61c0-.41-.14-.73-.41-.96-.27-.23-.61-.35-1.02-.35s-.74,.11-1,.33c-.26,.22-.43,.55-.51,.98h2.94Z"/><path class="cls-1" d="M305.48,13.9c-.67-.29-1.21-.68-1.6-1.19-.39-.5-.61-1.07-.65-1.71h3.22c.04,.31,.19,.54,.42,.71,.24,.17,.53,.25,.88,.25,.27,0,.49-.06,.64-.17,.16-.11,.24-.26,.24-.44,0-.24-.13-.41-.39-.53-.26-.11-.69-.24-1.29-.37-.68-.14-1.24-.29-1.7-.46-.45-.17-.85-.45-1.18-.83-.33-.38-.5-.91-.5-1.56,0-.57,.15-1.08,.46-1.54,.31-.46,.76-.82,1.35-1.09s1.31-.41,2.15-.41c1.24,0,2.22,.3,2.94,.92s1.13,1.41,1.24,2.41h-3c-.06-.3-.19-.54-.4-.7-.21-.16-.49-.25-.84-.25-.27,0-.48,.05-.62,.15-.14,.1-.21,.24-.21,.42,0,.23,.13,.4,.39,.52,.26,.12,.68,.24,1.26,.37,.69,.15,1.26,.31,1.72,.49,.46,.18,.86,.47,1.21,.87s.52,.95,.52,1.64c0,.55-.16,1.05-.48,1.49s-.78,.79-1.38,1.04c-.59,.25-1.29,.38-2.1,.38-.86,0-1.63-.14-2.3-.43Z"/></g><g><path class="cls-1" d="M129.31,25.06l-6.04,14.05h-3.61l2.27-4.94-3.9-9.11h3.7l2,5.4,1.93-5.4h3.65Z"/><path class="cls-1" d="M147.39,22.61v11.96h-3.33v-6.6l-2.26,6.6h-2.78l-2.27-6.65v6.65h-3.33v-11.96h4.02l3,7.77,2.94-7.77h4Z"/><path class="cls-1" d="M159.03,25.06v9.52h-3.34v-1.36c-.28,.43-.67,.78-1.17,1.04-.5,.27-1.07,.4-1.71,.4-1.11,0-1.98-.37-2.62-1.09-.64-.73-.96-1.72-.96-2.98v-5.53h3.31v5.11c0,.54,.14,.97,.43,1.28s.67,.47,1.15,.47,.87-.16,1.15-.47c.28-.31,.42-.74,.42-1.28v-5.11h3.34Z"/><path class="cls-1" d="M169.77,26.07c.64,.73,.97,1.72,.97,2.96v5.55h-3.33v-5.11c0-.54-.14-.97-.42-1.28-.28-.31-.66-.47-1.14-.47s-.89,.16-1.17,.47c-.28,.31-.42,.74-.42,1.28v5.11h-3.33v-9.52h3.33v1.36c.29-.43,.69-.78,1.19-1.04,.5-.27,1.07-.4,1.71-.4,1.1,0,1.97,.37,2.61,1.09Z"/><path class="cls-1" d="M172.83,23.69c-.36-.32-.53-.73-.53-1.21s.18-.91,.53-1.24c.36-.33,.83-.49,1.42-.49s1.04,.17,1.4,.49c.36,.33,.53,.74,.53,1.24s-.18,.89-.53,1.21c-.36,.32-.82,.48-1.4,.48s-1.06-.16-1.42-.48Zm3.06,1.37v9.52h-3.33v-9.52h3.33Z"/><path class="cls-1" d="M177.86,27.23c.41-.74,.98-1.3,1.71-1.7,.73-.4,1.56-.59,2.5-.59,1.21,0,2.23,.33,3.05,.99s1.36,1.59,1.59,2.78h-3.53c-.2-.62-.6-.93-1.19-.93-.42,0-.75,.17-.99,.52s-.37,.85-.37,1.52,.12,1.18,.37,1.53,.57,.53,.99,.53c.6,0,1-.31,1.19-.93h3.53c-.24,1.18-.77,2.1-1.59,2.77-.83,.67-1.84,1-3.05,1-.94,0-1.77-.2-2.5-.59-.73-.4-1.3-.96-1.71-1.7s-.61-1.6-.61-2.6,.2-1.84,.61-2.58Z"/><path class="cls-1" d="M188.36,23.69c-.36-.32-.53-.73-.53-1.21s.18-.91,.53-1.24c.36-.33,.83-.49,1.42-.49s1.04,.17,1.4,.49c.36,.33,.53,.74,.53,1.24s-.18,.89-.53,1.21c-.36,.32-.82,.48-1.4,.48s-1.06-.16-1.42-.48Zm3.06,1.37v9.52h-3.33v-9.52h3.33Z"/><path class="cls-1" d="M197.75,25.33c.47-.26,1.04-.39,1.68-.39,.76,0,1.45,.2,2.06,.59,.62,.4,1.1,.96,1.46,1.7s.53,1.59,.53,2.58-.18,1.85-.53,2.59-.84,1.31-1.46,1.71c-.62,.4-1.3,.59-2.06,.59-.64,0-1.2-.13-1.67-.39-.47-.26-.84-.61-1.11-1.05v5.87h-3.33v-14.07h3.33v1.32c.26-.44,.63-.79,1.1-1.05Zm1.86,3.03c-.33-.34-.74-.52-1.23-.52s-.9,.18-1.23,.53c-.33,.35-.5,.83-.5,1.44s.17,1.11,.5,1.46c.33,.35,.74,.53,1.23,.53s.9-.18,1.23-.53,.5-.84,.5-1.45-.17-1.11-.5-1.45Z"/><path class="cls-1" d="M204.85,27.23c.36-.74,.84-1.3,1.46-1.7,.62-.4,1.3-.59,2.06-.59,.66,0,1.22,.13,1.7,.39,.47,.26,.84,.61,1.1,1.05v-1.32h3.33v9.52h-3.33v-1.32c-.26,.44-.63,.79-1.11,1.05-.48,.26-1.04,.39-1.69,.39-.76,0-1.45-.2-2.06-.59-.62-.4-1.1-.96-1.46-1.71-.36-.74-.53-1.6-.53-2.59s.18-1.84,.53-2.58Zm5.82,1.14c-.33-.35-.74-.53-1.23-.53s-.91,.17-1.24,.52c-.33,.35-.49,.83-.49,1.45s.16,1.09,.49,1.45,.74,.53,1.24,.53,.9-.17,1.23-.53c.33-.35,.5-.84,.5-1.46s-.17-1.09-.5-1.44Z"/><path class="cls-1" d="M219.73,22.02v12.56h-3.33v-12.56h3.33Z"/><path class="cls-1" d="M230.67,30.49h-6.3c.03,.52,.18,.91,.43,1.16s.58,.38,.98,.38c.55,0,.95-.25,1.19-.75h3.55c-.15,.66-.43,1.24-.86,1.76-.42,.52-.96,.92-1.6,1.21s-1.36,.44-2.14,.44c-.94,0-1.77-.2-2.5-.59-.73-.4-1.3-.96-1.71-1.7s-.62-1.6-.62-2.6,.2-1.86,.61-2.59,.98-1.29,1.71-1.69c.73-.4,1.57-.59,2.52-.59s1.77,.19,2.49,.58c.72,.38,1.29,.94,1.7,1.66s.61,1.56,.61,2.54c0,.26-.02,.52-.05,.78Zm-3.34-1.61c0-.41-.14-.73-.41-.96-.27-.23-.61-.35-1.02-.35s-.74,.11-1,.33c-.26,.22-.43,.55-.51,.98h2.94Z"/><path class="cls-1" d="M233.84,34.26c-.67-.29-1.21-.68-1.6-1.19-.39-.5-.61-1.07-.65-1.71h3.22c.04,.31,.19,.54,.42,.71,.24,.17,.53,.25,.88,.25,.27,0,.49-.06,.64-.17,.16-.11,.24-.26,.24-.44,0-.24-.13-.41-.39-.53-.26-.11-.69-.24-1.29-.37-.68-.14-1.24-.29-1.7-.46-.45-.17-.85-.45-1.18-.83-.33-.38-.5-.91-.5-1.56,0-.57,.15-1.08,.46-1.54,.31-.46,.76-.82,1.35-1.09s1.31-.41,2.15-.41c1.24,0,2.22,.3,2.94,.92s1.13,1.41,1.24,2.41h-3c-.06-.31-.19-.54-.4-.71-.21-.16-.49-.25-.84-.25-.27,0-.48,.05-.62,.15s-.21,.24-.21,.42c0,.23,.13,.4,.39,.52,.26,.12,.68,.24,1.26,.37,.69,.15,1.26,.31,1.72,.49,.46,.18,.86,.47,1.21,.87s.52,.95,.52,1.64c0,.55-.16,1.05-.48,1.49s-.78,.79-1.38,1.04c-.59,.25-1.29,.38-2.1,.38-.86,0-1.63-.14-2.3-.43Z"/></g><g><path class="cls-6" d="M66.19,11.07c-.31,.71-.62,1.33-.88,1.79-.17,.3-.62,.18-.62-.16,0,0-.06-.34-.13-.76l4.32,26.73-18.51,2.68,.27,1.67,20.25-2.92-4.69-29.03Z"/><path class="cls-5" d="M3.42,58.27c-2.28-2.29-3.42-5.54-3.42-9.76s1.14-7.47,3.42-9.76c2.28-2.29,5.63-3.44,10.04-3.44s7.76,1.15,10.04,3.44c2.28,2.29,3.42,5.54,3.42,9.76s-1.14,7.47-3.42,9.76c-2.28,2.29-5.63,3.44-10.04,3.44s-7.76-1.15-10.04-3.44m13.53-4.54c.72-1.15,1.08-2.89,1.08-5.22s-.36-4.1-1.08-5.24c-.72-1.14-1.88-1.71-3.49-1.71s-2.78,.57-3.49,1.71c-.72,1.14-1.08,2.89-1.08,5.24s.36,4.07,1.08,5.22c.72,1.15,1.88,1.73,3.49,1.73s2.77-.58,3.49-1.73"/><path class="cls-5" d="M30.58,61.15c-.34-.36-.52-.92-.52-1.66v-21.94c0-.75,.17-1.3,.52-1.64,.34-.35,.95-.52,1.82-.52h3.63c.53,0,.95,.07,1.24,.21,.29,.14,.58,.42,.86,.83l6.92,10.41v-9.25c0-.75,.17-1.3,.52-1.66,.34-.36,.94-.54,1.78-.54h4.55c.87,0,1.47,.18,1.82,.52,.34,.35,.52,.91,.52,1.68v21.94c0,.75-.17,1.3-.52,1.64-.34,.35-.95,.52-1.82,.52h-3.63c-.54,0-.95-.07-1.24-.21-.29-.14-.58-.42-.86-.83l-6.92-10.41v9.29c0,.75-.17,1.3-.52,1.64-.34,.35-.95,.52-1.82,.52h-4.55c-.84,0-1.43-.18-1.78-.54"/><path class="cls-5" d="M58.2,61.16c-.35-.36-.53-.92-.53-1.66v-21.9c0-.75,.18-1.3,.53-1.66,.35-.36,.96-.54,1.82-.54h9.37c3.92,0,6.77,.77,8.56,2.3,1.79,1.53,2.68,3.85,2.68,6.94s-.9,5.41-2.68,6.93c-1.79,1.52-4.63,2.28-8.52,2.28h-2.35v5.65c0,.75-.18,1.3-.53,1.66-.35,.36-.97,.54-1.86,.54h-4.66c-.86,0-1.47-.18-1.82-.54m10.37-13.89c.84,0,1.49-.22,1.98-.66,.48-.44,.72-1.1,.72-1.97s-.24-1.57-.72-2.01c-.48-.44-1.14-.66-1.98-.66h-2.66v5.3h2.66Z"/><path class="cls-5" d="M84.55,61.15c-.35-.36-.52-.92-.52-1.66v-21.9c0-.75,.17-1.3,.52-1.66,.35-.36,.95-.54,1.8-.54h14.25c.82,0,1.39,.17,1.68,.52,.3,.35,.44,.91,.44,1.68v2.17c0,.77-.15,1.33-.44,1.68-.3,.35-.86,.52-1.68,.52h-7.28v3.33h5.22c.82,0,1.39,.17,1.68,.52,.3,.35,.44,.91,.44,1.68v2.09c0,.77-.15,1.33-.44,1.68-.3,.35-.86,.52-1.68,.52h-5.22v3.33h7.24c.83,0,1.39,.17,1.68,.52,.3,.35,.44,.91,.44,1.68v2.17c0,.77-.15,1.34-.44,1.68-.3,.35-.86,.52-1.68,.52h-14.21c-.85,0-1.45-.18-1.8-.54"/><path class="cls-2" d="M64.56,11.93c-.06-.33-.12-.71-.17-1.02-.12-.69,1.59-3.01,1.61-5.87,.01-1.9-1.09-3.64-1.83-4.33-.22-.2-.07-.57,.23-.57h-27.75v.05s.06,.06,.08,.1c.2,.38-.31,4.72,.5,10.93,.56,4.32,2.27,12.75,2.27,12.75,.19,1.04,1.23,1.71,2.28,1.42,.93-.26,1.45-1.26,1.28-2.21l-1.18-6.36,2.64-.78,1.82,9.87c.19,1.04,1.24,1.71,2.28,1.42,.93-.26,1.45-1.26,1.28-2.21l-1.87-10.12,2.64-.78,2.59,14c.19,1.04,1.23,1.71,2.28,1.42,.93-.26,1.45-1.26,1.28-2.21l-2.63-14.25,2.64-.78,2.41,13.05c.19,1.04,1.24,1.71,2.28,1.42,.93-.26,1.45-1.26,1.28-2.21l-3.09-16.73s0-.03,.02-.03l1.51-.28s.03,0,.03,.02l3.27,17.68c.26,1.42-.68,2.79-2.1,3.05v-.02c-.08,.02-.15,.05-.22,.06l-1.12,.21c-1.24,.23-2.44-.46-2.9-1.59-.01-.03-.06-.02-.05,.01l.19,1.05c.27,1.44-.68,2.82-2.12,3.08l-1.06,.2c-1.44,.27-2.82-.68-3.08-2.12l-.54-2.93s-.05-.03-.05,0c-.02,1.22-.9,2.29-2.14,2.52l-1.1,.2c-.59,.11-1.16,.01-1.66-.23l2.06,12.75,20.26-2.93-4.32-26.73Z"/><path class="cls-3" d="M48.21,29.09l1.09-.2c1.24-.23,2.12-1.3,2.14-2.52,0-.04,.05-.04,.05,0l.54,2.93c.27,1.44,1.65,2.39,3.08,2.12l1.07-.2c1.44-.27,2.39-1.65,2.12-3.08l-.19-1.05s.04-.05,.05-.01c.46,1.13,1.66,1.82,2.9,1.59l1.12-.21c.07-.01,.14-.04,.21-.06v.02c1.43-.26,2.37-1.63,2.11-3.05l-3.27-17.68s-.02-.03-.03-.02l-1.51,.28s-.03,.02-.02,.03l3.09,16.73c.18,.95-.34,1.95-1.28,2.21-1.04,.29-2.09-.38-2.28-1.42l-2.41-13.05-2.64,.78,2.63,14.25c.18,.95-.34,1.95-1.28,2.21-1.04,.29-2.09-.38-2.28-1.42l-2.59-14-2.64,.78,1.87,10.12c.18,.95-.34,1.95-1.28,2.21-1.04,.29-2.09-.38-2.28-1.42l-1.82-9.87-2.64,.78,1.18,6.36c.18,.95-.34,1.95-1.28,2.21-1.04,.29-2.09-.38-2.28-1.42,0,0-1.71-8.43-2.27-12.75-.8-6.21-.3-10.55-.5-10.93-.02-.04-.05-.07-.08-.1-.32-.28-1.26-.27-1.47,.07-.23,.37-.29,6.24,.38,11.01,.6,4.29,2.52,13.81,2.52,13.81,.26,1.42,1.63,2.36,3.05,2.1l.22-.04,.9-.17,.22-.04c1.24-.23,2.12-1.3,2.14-2.52,0-.04,.05-.04,.05,0l.47,2.55c.16,.85,.71,1.53,1.43,1.89,.5,.25,1.07,.34,1.66,.23"/><path class="cls-3" d="M67.43,3.12s-.37-1.85-1.65-2.89c-.06-.05-.14-.08-.22-.08h-1.16c-.3,0-.45,.37-.23,.57,.73,.69,1.84,2.43,1.83,4.33-.02,2.86-1.72,5.18-1.61,5.87,.05,.3,.12,.68,.17,1.02h0c.07,.42,.13,.76,.13,.76,0,.34,.46,.46,.62,.16,.26-.46,.57-1.08,.88-1.79,1-2.29,2-5.56,1.23-7.95"/><path class="cls-7" d="M121.4,43.24h105.51c1.34,0,2.42,1.09,2.42,2.42v13.34c0,1.34-1.09,2.42-2.42,2.42H121.4c-1.34,0-2.42-1.09-2.42-2.42v-13.34c0-1.34,1.09-2.42,2.42-2.42Z"/></g><g><path class="cls-4" d="M124.68,54.24c.63-.52,1.12-.95,1.49-1.28,.36-.33,.67-.68,.92-1.05,.25-.37,.38-.72,.38-1.07,0-.26-.06-.47-.18-.62-.12-.15-.31-.22-.55-.22s-.44,.09-.57,.27c-.14,.18-.21,.44-.21,.78h-1.59c.01-.55,.13-1,.35-1.37s.51-.64,.88-.81c.36-.17,.77-.26,1.21-.26,.76,0,1.34,.2,1.73,.59,.39,.39,.58,.9,.58,1.53,0,.69-.23,1.32-.7,1.91-.47,.59-1.07,1.16-1.79,1.72h2.6v1.34h-4.83v-1.22c.22-.17,.32-.25,.3-.24Z"/><path class="cls-4" d="M132.13,51.65c.21-.42,.49-.74,.85-.96,.36-.22,.76-.34,1.2-.34,.35,0,.68,.07,.97,.22s.52,.35,.69,.6v-2.49h1.65v7.12h-1.65v-.77c-.15,.26-.37,.46-.66,.62-.29,.15-.62,.23-1,.23-.44,0-.84-.11-1.2-.34s-.64-.55-.85-.97c-.21-.42-.31-.91-.31-1.46s.1-1.04,.31-1.45Zm3.37,.49c-.23-.24-.51-.36-.83-.36s-.61,.12-.83,.35-.34,.56-.34,.97,.11,.74,.34,.98c.23,.24,.51,.36,.83,.36s.6-.12,.83-.36c.23-.24,.34-.56,.34-.97s-.11-.73-.34-.97Z"/><path class="cls-4" d="M143.72,53.51h-3.73c.03,.33,.13,.59,.32,.77s.42,.26,.7,.26c.41,0,.7-.17,.86-.52h1.75c-.09,.35-.25,.67-.49,.95s-.53,.5-.88,.66c-.35,.16-.75,.24-1.18,.24-.53,0-1-.11-1.41-.34-.41-.22-.73-.55-.96-.96-.23-.42-.35-.91-.35-1.46s.11-1.05,.34-1.46c.23-.42,.55-.74,.96-.96,.41-.22,.88-.34,1.42-.34s.98,.11,1.39,.33c.4,.22,.72,.53,.95,.93,.23,.4,.34,.88,.34,1.42,0,.15,0,.31-.03,.48Zm-1.66-.91c0-.28-.1-.51-.29-.67-.19-.17-.43-.25-.72-.25s-.51,.08-.7,.24c-.19,.16-.31,.39-.35,.68h2.06Z"/><path class="cls-4" d="M147.68,55.54c-.42-.22-.75-.55-.99-.96-.24-.42-.36-.91-.36-1.46s.12-1.04,.37-1.46c.24-.42,.58-.74,1-.97,.42-.22,.9-.34,1.42-.34s1,.11,1.42,.34c.42,.23,.76,.55,1,.97,.24,.42,.37,.91,.37,1.46s-.12,1.04-.37,1.46c-.25,.42-.58,.74-1.01,.97-.43,.22-.9,.34-1.43,.34s-1-.11-1.42-.34Zm2.22-1.43c.22-.23,.33-.56,.33-.99s-.11-.76-.32-.99c-.22-.23-.48-.35-.79-.35s-.59,.11-.8,.34c-.21,.23-.32,.56-.32,1s.1,.76,.31,.99c.21,.23,.47,.35,.78,.35s.58-.12,.8-.35Z"/><path class="cls-4" d="M152.8,51.65c.23-.42,.54-.74,.95-.96,.41-.22,.88-.34,1.4-.34,.67,0,1.24,.18,1.69,.53,.45,.35,.75,.85,.89,1.49h-1.75c-.15-.41-.43-.62-.86-.62-.3,0-.54,.12-.72,.35-.18,.23-.27,.57-.27,1.01s.09,.77,.27,1.01c.18,.23,.42,.35,.72,.35,.42,0,.71-.21,.86-.62h1.75c-.14,.63-.44,1.12-.9,1.48s-1.02,.54-1.68,.54c-.53,0-.99-.11-1.4-.34-.41-.22-.73-.55-.95-.96-.23-.42-.34-.91-.34-1.46s.11-1.05,.34-1.46Z"/><path class="cls-4" d="M161.6,54.41v1.4h-.84c-.6,0-1.06-.15-1.4-.44-.33-.29-.5-.77-.5-1.43v-2.14h-.65v-1.37h.65v-1.31h1.65v1.31h1.08v1.37h-1.08v2.16c0,.16,.04,.28,.12,.35s.21,.11,.38,.11h.59Z"/><path class="cls-4" d="M167.83,50.43v5.37h-1.65v-.73c-.17,.24-.39,.43-.68,.57-.29,.14-.6,.22-.95,.22-.41,0-.77-.09-1.09-.27-.32-.18-.56-.45-.73-.79-.17-.35-.26-.75-.26-1.22v-3.14h1.64v2.92c0,.36,.09,.64,.28,.84,.19,.2,.44,.3,.75,.3s.57-.1,.76-.3c.19-.2,.28-.48,.28-.84v-2.92h1.65Z"/><path class="cls-4" d="M171.32,50.58c.29-.15,.62-.23,.99-.23,.44,0,.84,.11,1.2,.34,.36,.23,.64,.55,.85,.96,.21,.42,.31,.9,.31,1.45s-.1,1.04-.31,1.46c-.21,.42-.49,.75-.85,.97s-.76,.34-1.2,.34c-.38,0-.71-.08-.99-.23-.28-.15-.5-.35-.67-.6v.75h-1.65v-7.12h1.65v2.51c.15-.25,.38-.45,.67-.61Zm1.34,1.55c-.23-.23-.51-.35-.84-.35s-.6,.12-.83,.36c-.23,.24-.34,.56-.34,.97s.11,.74,.34,.97c.23,.24,.5,.36,.83,.36s.61-.12,.84-.36c.23-.24,.35-.57,.35-.98s-.11-.73-.34-.97Z"/><path class="cls-4" d="M177.92,50.63c.29-.17,.61-.25,.96-.25v1.74h-.45c-.41,0-.72,.09-.92,.26-.21,.18-.31,.49-.31,.93v2.49h-1.65v-5.37h1.65v.9c.19-.29,.43-.53,.72-.7Z"/><path class="cls-4" d="M184.7,53.51h-3.73c.03,.33,.13,.59,.32,.77,.19,.18,.42,.26,.7,.26,.41,0,.7-.17,.86-.52h1.75c-.09,.35-.25,.67-.49,.95-.24,.28-.53,.5-.88,.66-.35,.16-.75,.24-1.18,.24-.53,0-1-.11-1.41-.34s-.73-.55-.96-.96-.35-.91-.35-1.46,.11-1.05,.34-1.46c.23-.42,.55-.74,.96-.96,.41-.22,.88-.34,1.42-.34s.98,.11,1.39,.33c.41,.22,.72,.53,.95,.93,.23,.4,.34,.88,.34,1.42,0,.15,0,.31-.03,.48Zm-1.66-.91c0-.28-.1-.51-.29-.67-.19-.17-.43-.25-.72-.25s-.51,.08-.7,.24c-.19,.16-.31,.39-.35,.68h2.06Z"/><path class="cls-4" d="M187.63,51.65c.21-.42,.49-.74,.85-.96,.36-.22,.76-.34,1.2-.34,.35,0,.67,.07,.97,.22,.29,.15,.52,.35,.69,.6v-2.49h1.65v7.12h-1.65v-.77c-.15,.26-.37,.46-.66,.62-.29,.15-.62,.23-1,.23-.44,0-.84-.11-1.2-.34s-.64-.55-.85-.97c-.21-.42-.31-.91-.31-1.46s.1-1.04,.31-1.45Zm3.37,.49c-.23-.24-.5-.36-.83-.36s-.61,.12-.83,.35c-.23,.23-.34,.56-.34,.97s.11,.74,.34,.98c.23,.24,.5,.36,.83,.36s.6-.12,.83-.36c.23-.24,.34-.56,.34-.97s-.11-.73-.34-.97Z"/><path class="cls-4" d="M199.21,53.51h-3.73c.03,.33,.13,.59,.32,.77,.19,.18,.42,.26,.7,.26,.41,0,.7-.17,.86-.52h1.75c-.09,.35-.25,.67-.49,.95-.24,.28-.53,.5-.88,.66-.35,.16-.75,.24-1.18,.24-.53,0-1-.11-1.41-.34s-.73-.55-.96-.96-.35-.91-.35-1.46,.11-1.05,.34-1.46c.23-.42,.55-.74,.96-.96,.41-.22,.88-.34,1.42-.34s.98,.11,1.39,.33c.41,.22,.72,.53,.95,.93,.23,.4,.34,.88,.34,1.42,0,.15,0,.31-.03,.48Zm-1.66-.91c0-.28-.1-.51-.29-.67-.19-.17-.43-.25-.72-.25s-.51,.08-.7,.24c-.19,.16-.31,.39-.35,.68h2.06Z"/><path class="cls-4" d="M202.23,54.24c.63-.52,1.12-.95,1.49-1.28,.36-.33,.67-.68,.92-1.05,.25-.37,.38-.72,.38-1.07,0-.26-.06-.47-.18-.62s-.3-.22-.55-.22-.43,.09-.57,.27c-.14,.18-.21,.44-.21,.78h-1.59c.01-.55,.13-1,.35-1.37,.22-.37,.51-.64,.88-.81,.36-.17,.77-.26,1.21-.26,.76,0,1.34,.2,1.73,.59s.58,.9,.58,1.53c0,.69-.23,1.32-.7,1.91-.47,.59-1.07,1.16-1.79,1.72h2.6v1.34h-4.83v-1.22c.22-.17,.32-.25,.3-.24Z"/><path class="cls-4" d="M208.13,49.58c.43-.64,1.12-.95,2.07-.95s1.64,.32,2.07,.95c.43,.63,.64,1.5,.64,2.61s-.21,1.99-.64,2.63c-.43,.64-1.12,.95-2.07,.95s-1.64-.32-2.07-.95c-.43-.63-.64-1.51-.64-2.63s.21-1.97,.64-2.61Zm2.94,1.11c-.14-.35-.43-.52-.88-.52s-.73,.17-.88,.52c-.14,.35-.21,.85-.21,1.5,0,.44,.03,.8,.08,1.08,.05,.29,.16,.52,.31,.69s.39,.26,.7,.26,.54-.09,.7-.26,.26-.41,.31-.69c.05-.29,.08-.65,.08-1.08,0-.65-.07-1.15-.21-1.5Z"/><path class="cls-4" d="M214,54.24c.63-.52,1.12-.95,1.49-1.28,.36-.33,.67-.68,.92-1.05,.25-.37,.38-.72,.38-1.07,0-.26-.06-.47-.18-.62s-.3-.22-.55-.22-.43,.09-.57,.27c-.14,.18-.21,.44-.21,.78h-1.59c.01-.55,.13-1,.35-1.37,.22-.37,.51-.64,.88-.81,.36-.17,.77-.26,1.21-.26,.76,0,1.34,.2,1.73,.59s.58,.9,.58,1.53c0,.69-.23,1.32-.7,1.91-.47,.59-1.07,1.16-1.79,1.72h2.6v1.34h-4.83v-1.22c.22-.17,.32-.25,.3-.24Z"/><path class="cls-4" d="M219.5,54.24c.63-.52,1.12-.95,1.49-1.28,.36-.33,.67-.68,.92-1.05,.25-.37,.38-.72,.38-1.07,0-.26-.06-.47-.18-.62s-.3-.22-.55-.22-.43,.09-.57,.27c-.14,.18-.21,.44-.21,.78h-1.59c.01-.55,.13-1,.35-1.37,.22-.37,.51-.64,.88-.81,.36-.17,.77-.26,1.21-.26,.76,0,1.34,.2,1.73,.59s.58,.9,.58,1.53c0,.69-.23,1.32-.7,1.91-.47,.59-1.07,1.16-1.79,1.72h2.6v1.34h-4.83v-1.22c.22-.17,.32-.25,.3-.24Z"/></g></svg>